<svg width="16" height="16" viewBox="0 0 16 16" fill="none" xmlns="http://www.w3.org/2000/svg">
<g clip-path="url(#clip0_5110_248)">
<path fill-rule="evenodd" clip-rule="evenodd" d="M8.00008 2.00002C4.68637 2.00002 2.00008 4.68631 2.00008 8.00002C2.00008 11.3137 4.68637 14 8.00008 14C11.3138 14 14.0001 11.3137 14.0001 8.00002C14.0001 4.68631 11.3138 2.00002 8.00008 2.00002ZM0.666748 8.00002C0.666748 3.94993 3.94999 0.666687 8.00008 0.666687C12.0502 0.666687 15.3334 3.94993 15.3334 8.00002C15.3334 12.0501 12.0502 15.3334 8.00008 15.3334C3.94999 15.3334 0.666748 12.0501 0.666748 8.00002ZM8.00008 3.33335C8.36827 3.33335 8.66675 3.63183 8.66675 4.00002V6.92133L10.3686 6.0704C10.6979 5.90574 11.0984 6.03923 11.263 6.36854C11.4277 6.69786 11.2942 7.09831 10.9649 7.26297L8.29822 8.59631C8.09157 8.69963 7.84614 8.68859 7.64959 8.56712C7.45305 8.44565 7.33342 8.23107 7.33342 8.00002V4.00002C7.33342 3.63183 7.63189 3.33335 8.00008 3.33335Z" fill="#355EC5"/>
</g>
<defs>
<clipPath id="clip0_5110_248">
<rect width="16" height="16" fill="white"/>
</clipPath>
</defs>
</svg>
