<svg width="40" height="40" viewBox="0 0 40 40" fill="none" xmlns="http://www.w3.org/2000/svg">
<rect width="40" height="40" rx="20" fill="#2E3DA3"/>
<path d="M15.1834 24.922C15.5988 24.922 15.9698 24.852 16.2964 24.712C16.6231 24.572 16.8984 24.376 17.1224 24.124C17.3511 23.872 17.5238 23.571 17.6404 23.221C17.7618 22.871 17.8224 22.486 17.8224 22.066V15.969H19.1734V22.066C19.1734 22.6447 19.0801 23.1813 18.8934 23.676C18.7114 24.1707 18.4478 24.6 18.1024 24.964C17.7618 25.3233 17.3441 25.6057 16.8494 25.811C16.3548 26.0163 15.7994 26.119 15.1834 26.119C14.5674 26.119 14.0121 26.0163 13.5174 25.811C13.0228 25.6057 12.6028 25.3233 12.2574 24.964C11.9121 24.6 11.6461 24.1707 11.4594 23.676C11.2774 23.1813 11.1864 22.6447 11.1864 22.066V15.969H12.5374V22.059C12.5374 22.479 12.5958 22.864 12.7124 23.214C12.8338 23.564 13.0064 23.865 13.2304 24.117C13.4591 24.369 13.7368 24.5673 14.0634 24.712C14.3948 24.852 14.7681 24.922 15.1834 24.922ZM28.1019 22.276L26.5269 18.195C26.4803 18.0737 26.4313 17.9337 26.3799 17.775C26.3286 17.6117 26.2796 17.439 26.2329 17.257C26.1349 17.635 26.0346 17.95 25.9319 18.202L24.3569 22.276H28.1019ZM30.9299 26H29.8799C29.7586 26 29.6606 25.9697 29.5859 25.909C29.5113 25.8483 29.4553 25.7713 29.4179 25.678L28.4799 23.256H23.9789L23.0409 25.678C23.0129 25.762 22.9593 25.8367 22.8799 25.902C22.8006 25.9673 22.7026 26 22.5859 26H21.5359L25.5469 15.969H26.9189L30.9299 26Z" fill="#F9FAFA"/>
</svg>
