<svg width="31" height="31" viewBox="0 0 31 31" fill="none" xmlns="http://www.w3.org/2000/svg">
<path d="M9.80933 5.29191C9.64398 5.29191 9.47887 5.29598 9.31412 5.3041L9.11503 1.25101C9.57537 1.05246 10.0473 0.875714 10.5296 0.722143L10.3045 5.3041C10.1397 5.29598 9.97463 5.29191 9.80933 5.29191Z" fill="#5165E1"/>
<path d="M12.0432 0.324318L11.2901 5.40116C11.6169 5.44964 11.9411 5.5141 12.2615 5.59439L13.6434 0.0776163C13.1012 0.132193 12.5673 0.214934 12.0432 0.324318Z" fill="#5165E1"/>
<path d="M15.3138 0L13.2092 5.88187C13.3645 5.93746 13.5187 5.99688 13.6714 6.06014C13.8241 6.12339 13.9751 6.19035 14.1242 6.2609L17.0345 0.107536C16.4698 0.0404934 15.8956 0.00410938 15.3138 0Z" fill="#5165E1"/>
<path d="M18.7798 0.417633L14.9977 6.72775C15.281 6.89757 15.5558 7.0812 15.8212 7.27799L20.5194 0.94308C19.9544 0.734979 19.3738 0.559061 18.7798 0.417633Z" fill="#5165E1"/>
<path d="M22.2208 1.69002L16.5867 7.90627C16.709 8.01704 16.8286 8.13094 16.9455 8.24785C17.0624 8.36472 17.1763 8.48435 17.2871 8.60657L23.8501 2.65812C23.3291 2.30338 22.785 1.97975 22.2208 1.69002Z" fill="#5165E1"/>
<path d="M25.3734 3.84093L17.9153 9.37216C18.1121 9.63747 18.2958 9.91229 18.4656 10.1957L26.7569 5.22598C26.3254 4.73562 25.8633 4.27293 25.3734 3.84093Z" fill="#5165E1"/>
<path d="M27.9684 6.7954L18.9324 11.0691C19.003 11.2182 19.0699 11.3692 19.1331 11.5219C19.1965 11.6747 19.2559 11.8288 19.3115 11.9841L28.9775 8.52554C28.6781 7.92543 28.3407 7.34767 27.9684 6.7954Z" fill="#5165E1"/>
<path d="M29.7574 10.3873L19.5989 12.9318C19.6792 13.2522 19.7437 13.5764 19.7922 13.9032L30.2873 12.3464C30.1531 11.6766 29.9755 11.0226 29.7574 10.3873Z" fill="#5165E1"/>
<path d="M30.5539 14.3649L19.8892 14.8888C19.8973 15.0535 19.9014 15.2187 19.9014 15.384C19.9014 16.7093 19.6403 18.0216 19.1331 19.2461C18.626 20.4705 17.8826 21.583 16.9455 22.5202C16.0083 23.4573 14.8958 24.2007 13.6714 24.7079C12.447 25.215 11.1346 25.476 9.80928 25.476C8.48398 25.476 7.17166 25.215 5.94725 24.7079C4.72279 24.2007 3.61025 23.4573 2.67313 22.5202C1.73601 21.583 0.992623 20.4705 0.485461 19.2461C0.284794 18.7617 0.122681 18.2636 4.57952e-05 17.7563C1.14079 25.1265 7.51287 30.7684 15.2026 30.7684C23.6992 30.7684 30.5871 23.8806 30.5871 15.384C30.5871 15.0416 30.5759 14.7018 30.5539 14.3649Z" fill="#5165E1"/>
<path d="M0 13.0119C0.0064642 12.9851 0.0130207 12.9585 0.0197157 12.9318L0.0128817 12.9301C0.00849524 12.9573 0.00420173 12.9846 0 13.0119Z" fill="#5165E1"/>
<path d="M0.203622 11.947L0.307187 11.9841C0.362779 11.8288 0.422204 11.6747 0.485461 11.5219C0.548718 11.3692 0.615668 11.2182 0.68622 11.0691L0.46279 10.9634C0.365919 11.2869 0.279392 11.6149 0.203622 11.947Z" fill="#5165E1"/>
<path d="M0.793988 9.9804L1.15307 10.1957C1.3229 9.91229 1.50653 9.63747 1.70332 9.37216L1.20128 8.99982C1.05463 9.32091 0.918747 9.64795 0.793988 9.9804Z" fill="#5165E1"/>
<path d="M1.68942 8.02452L2.33159 8.60657C2.44236 8.48435 2.55627 8.36472 2.67313 8.24781C2.79004 8.13094 2.90967 8.01704 3.03189 7.90627L2.26348 7.05844C2.06079 7.37279 1.86926 7.69503 1.68942 8.02452Z" fill="#5165E1"/>
<path d="M2.92897 6.10696L3.79748 7.27799C4.06279 7.0812 4.33762 6.89757 4.62098 6.72775L3.69156 5.17713C3.42561 5.47684 3.1712 5.78703 2.92897 6.10696Z" fill="#5165E1"/>
<path d="M4.55661 4.27805L5.49438 6.2609C5.64352 6.19035 5.79451 6.12339 5.94725 6.06014C6.09999 5.99688 6.25411 5.93746 6.40939 5.88187L5.52887 3.42099C5.19278 3.69309 4.86842 3.97908 4.55661 4.27805Z" fill="#5165E1"/>
<path d="M6.612 2.61962L7.35713 5.59439C7.67757 5.5141 8.00175 5.44964 8.32852 5.40116L7.80769 1.89018C7.3974 2.1155 6.99846 2.35902 6.612 2.61962Z" fill="#5165E1"/>
</svg>
