<svg width="28" height="28" viewBox="0 0 28 28" fill="none" xmlns="http://www.w3.org/2000/svg">
<path d="M8.91757 4.81083C8.76726 4.81083 8.61715 4.81453 8.46738 4.82191L8.28639 1.13728C8.70488 0.956785 9.13391 0.796104 9.57238 0.656494L9.36776 4.82191C9.21795 4.81453 9.06784 4.81083 8.91757 4.81083Z" fill="#2E3DA3"/>
<path d="M10.9484 0.294834L10.2638 4.91015C10.5608 4.95422 10.8555 5.01282 11.1468 5.08581L12.4031 0.0705602C11.9102 0.120175 11.4248 0.195395 10.9484 0.294834Z" fill="#2E3DA3"/>
<path d="M13.9217 0L12.0084 5.34715C12.1496 5.39769 12.2897 5.45171 12.4285 5.50922C12.5674 5.56672 12.7047 5.62759 12.8402 5.69173L15.486 0.0977604C14.9726 0.0368122 14.4506 0.0037358 13.9217 0Z" fill="#2E3DA3"/>
<path d="M17.0726 0.379667L13.6343 6.11614C13.8918 6.27052 14.1416 6.43746 14.3829 6.61636L18.654 0.857345C18.1404 0.668163 17.6125 0.508237 17.0726 0.379667Z" fill="#2E3DA3"/>
<path d="M20.2007 1.53638L15.0788 7.18752C15.19 7.28821 15.2987 7.39177 15.405 7.49805C15.5113 7.60429 15.6148 7.71305 15.7155 7.82416L21.6819 2.41648C21.2082 2.09398 20.7137 1.79978 20.2007 1.53638Z" fill="#2E3DA3"/>
<path d="M23.0667 3.49176L16.2867 8.52015C16.4656 8.76134 16.6325 9.01117 16.7869 9.26878L24.3245 4.75089C23.9322 4.30511 23.5121 3.88448 23.0667 3.49176Z" fill="#2E3DA3"/>
<path d="M25.4258 6.17763L17.2113 10.0628C17.2754 10.1984 17.3363 10.3356 17.3938 10.4745C17.4513 10.6133 17.5053 10.7534 17.5559 10.8946L26.3432 7.75049C26.071 7.20494 25.7643 6.6797 25.4258 6.17763Z" fill="#2E3DA3"/>
<path d="M27.0522 9.44298L17.8172 11.7562C17.8902 12.0475 17.9488 12.3422 17.9929 12.6393L27.5339 11.224C27.4119 10.6151 27.2505 10.0205 27.0522 9.44298Z" fill="#2E3DA3"/>
<path d="M27.7762 13.059L18.0811 13.5353C18.0885 13.685 18.0922 13.8351 18.0922 13.9855C18.0922 15.1903 17.8548 16.3833 17.3938 17.4964C16.9327 18.6095 16.2569 19.6209 15.405 20.4729C14.553 21.3248 13.5416 22.0006 12.4285 22.4617C11.3154 22.9228 10.1223 23.16 8.91753 23.16C7.71271 23.16 6.51969 22.9228 5.40659 22.4617C4.29344 22.0006 3.28205 21.3248 2.43012 20.4729C1.57819 19.6209 0.902385 18.6095 0.441328 17.4964C0.258903 17.0561 0.111528 16.6032 4.1632e-05 16.1421C1.03708 22.8423 6.82989 27.9713 13.8206 27.9713C21.5448 27.9713 27.8064 21.7096 27.8064 13.9855C27.8064 13.6742 27.7963 13.3652 27.7762 13.059Z" fill="#2E3DA3"/>
<path d="M0 11.829C0.00587654 11.8047 0.011837 11.7805 0.0179234 11.7562L0.0117106 11.7546C0.00772295 11.7794 0.00381975 11.8042 0 11.829Z" fill="#2E3DA3"/>
<path d="M0.185111 10.8609L0.279261 10.8946C0.329799 10.7534 0.383822 10.6133 0.441328 10.4745C0.498834 10.3356 0.559698 10.1984 0.623836 10.0628L0.420718 9.96674C0.332654 10.2609 0.253993 10.559 0.185111 10.8609Z" fill="#2E3DA3"/>
<path d="M0.721807 9.07309L1.04825 9.26878C1.20263 9.01117 1.36957 8.76134 1.54847 8.52015L1.09207 8.18166C0.958758 8.47356 0.835224 8.77087 0.721807 9.07309Z" fill="#2E3DA3"/>
<path d="M1.53583 7.29501L2.11963 7.82416C2.22033 7.71305 2.32388 7.60429 2.43012 7.49801C2.5364 7.39177 2.64516 7.28821 2.75627 7.18752L2.05771 6.41676C1.87344 6.70253 1.69933 6.99548 1.53583 7.29501Z" fill="#2E3DA3"/>
<path d="M2.6627 5.55178L3.45226 6.61636C3.69345 6.43746 3.94329 6.27052 4.20089 6.11614L3.35597 4.70648C3.11419 4.97894 2.88291 5.26093 2.6627 5.55178Z" fill="#2E3DA3"/>
<path d="M4.14238 3.88914L4.99489 5.69173C5.13047 5.62759 5.26773 5.56672 5.40659 5.50922C5.54544 5.45171 5.68555 5.39769 5.82672 5.34715L5.02625 3.10999C4.72071 3.35735 4.42583 3.61735 4.14238 3.88914Z" fill="#2E3DA3"/>
<path d="M6.01091 2.38147L6.6883 5.08581C6.97961 5.01282 7.27432 4.95422 7.57138 4.91015L7.0979 1.71834C6.72491 1.92318 6.36224 2.14456 6.01091 2.38147Z" fill="#2E3DA3"/>
</svg>
